<svg width="57px" height="48px" viewBox="0 0 570 480" version="1.1" xmlns="http://www.w3.org/2000/svg">
<g id="#57338dff">
<path fill="#57338d" opacity="1.00" d=" M 318.56 0.00 L 331.15 0.00 C 345.61 1.02 360.00 3.83 373.48 9.29 C 402.03 20.56 426.35 42.22 440.64 69.41 C 454.93 96.16 459.11 128.06 452.40 157.62 C 446.20 185.57 430.20 211.11 408.07 229.20 C 448.76 244.32 485.10 270.90 511.82 305.12 C 535.77 335.63 551.95 372.21 558.19 410.51 C 561.76 430.62 561.32 451.09 561.30 471.43 C 403.58 471.44 245.85 471.44 88.12 471.43 C 88.33 454.94 87.66 438.39 89.69 421.98 C 95.33 370.72 118.96 321.78 155.19 285.15 C 179.37 260.49 209.03 241.25 241.40 229.21 C 227.46 217.74 215.88 203.43 207.74 187.31 C 195.40 163.12 191.19 134.95 195.70 108.19 C 200.57 78.48 216.43 50.82 239.36 31.36 C 261.32 12.47 289.68 1.53 318.56 0.00 M 319.27 46.50 C 289.99 48.07 262.41 66.33 249.45 92.61 C 240.26 110.77 238.30 132.39 243.90 151.95 C 248.89 169.61 260.04 185.40 274.85 196.21 C 287.38 205.45 302.54 211.06 318.06 212.23 C 335.77 213.66 353.90 209.37 369.00 200.00 C 385.53 189.85 398.41 173.83 404.51 155.39 C 410.58 137.23 410.04 116.93 402.94 99.13 C 396.47 82.74 384.58 68.59 369.66 59.24 C 354.77 49.80 336.85 45.34 319.27 46.50 M 257.09 272.90 C 224.51 285.18 195.48 306.65 174.17 334.17 C 153.77 360.39 140.52 392.13 136.48 425.12 C 261.99 425.13 387.49 425.12 513.00 425.12 C 508.65 389.67 493.66 355.68 470.64 328.41 C 444.66 297.38 408.53 275.04 369.13 265.76 C 332.18 256.97 292.60 259.39 257.09 272.90 Z" />
</g>
<g id="#fbb803ff">
<path fill="#fbb803" opacity="1.00" d=" M 83.44 107.66 C 92.20 123.25 100.96 138.84 109.69 154.44 C 127.38 157.91 145.09 161.29 162.80 164.72 C 150.59 177.86 138.22 190.85 125.96 203.95 C 128.14 221.65 130.31 239.35 132.52 257.05 C 116.03 249.68 99.75 241.87 83.25 234.52 C 66.99 242.13 50.68 249.64 34.33 257.05 C 36.59 239.39 38.65 221.70 40.93 204.05 C 28.71 190.87 16.28 177.88 4.03 164.72 C 21.75 161.28 39.48 157.92 57.19 154.43 C 65.91 138.82 74.64 123.22 83.44 107.66 Z" />
</g>
</svg>