<svg width="56px" height="45px" viewBox="0 0 560 450" version="1.1" xmlns="http://www.w3.org/2000/svg">
<g id="#57338dff">
<path fill="#57338d" opacity="1.00" d=" M 0.00 0.00 L 560.00 0.00 L 560.00 450.00 L 0.00 450.00 L 0.00 388.62 C 7.30 388.58 14.61 388.71 21.90 388.58 C 29.89 388.38 37.05 381.87 38.17 374.00 C 39.96 364.62 32.54 354.82 23.04 354.02 C 15.37 353.67 7.68 353.98 0.00 353.87 L 0.00 291.12 C 7.36 291.05 14.72 291.27 22.07 291.02 C 30.89 290.76 38.46 282.75 38.39 273.96 C 38.73 264.93 30.95 256.58 21.90 256.37 C 14.60 256.22 7.30 256.35 0.00 256.33 L 0.00 193.62 C 7.54 193.54 15.09 193.78 22.63 193.52 C 31.39 192.94 38.69 184.79 38.39 176.03 C 38.49 167.20 30.85 159.17 22.01 158.91 C 14.68 158.67 7.34 158.89 0.00 158.81 L 0.00 96.19 C 7.33 96.13 14.66 96.29 21.98 96.13 C 30.87 95.94 38.52 87.82 38.40 78.97 C 38.67 69.95 30.88 61.65 21.84 61.48 C 14.56 61.36 7.28 61.46 0.00 61.46 L 0.00 0.00 M 68.43 42.31 C 77.65 54.69 82.16 70.53 80.20 85.90 C 78.38 102.47 69.05 117.87 55.54 127.55 C 71.85 139.06 81.70 159.09 80.55 179.07 C 79.89 197.17 70.23 214.41 55.60 224.96 C 71.72 236.46 81.58 256.22 80.57 276.06 C 79.99 294.26 70.43 311.86 55.52 322.31 C 68.45 331.65 77.62 346.14 79.93 361.98 C 82.48 377.88 78.12 394.64 68.39 407.44 C 97.59 407.72 126.80 407.48 156.00 407.56 C 276.61 407.56 397.21 407.57 517.82 407.55 C 517.81 285.81 517.81 164.07 517.82 42.32 C 368.02 42.30 218.22 42.33 68.43 42.31 Z" />
</g>
<g id="#fbb803ff">
<path fill="#fbb803" opacity="1.00" d=" M 266.53 103.70 C 279.04 101.06 292.48 103.01 303.66 109.25 C 316.48 116.29 326.20 128.75 329.85 142.93 C 333.55 156.95 331.36 172.43 323.77 184.81 C 316.06 197.63 302.81 207.00 288.09 209.82 C 274.63 212.53 260.17 209.82 248.64 202.34 C 235.73 194.14 226.61 180.24 224.33 165.11 C 222.27 152.12 225.10 138.42 232.27 127.39 C 239.94 115.36 252.55 106.59 266.53 103.70 M 275.05 145.21 C 269.37 146.42 265.18 152.28 265.98 158.06 C 266.55 164.30 272.77 169.30 279.00 168.40 C 285.37 167.81 290.34 161.35 289.27 155.04 C 288.51 148.47 281.50 143.53 275.05 145.21 Z" />
<path fill="#fbb803" opacity="1.00" d=" M 392.82 147.77 C 405.85 134.77 418.70 121.59 431.88 108.73 C 441.78 118.73 451.72 128.70 461.68 138.65 C 394.38 206.17 327.06 273.68 259.78 341.22 C 249.70 331.34 239.83 321.23 229.83 311.26 C 284.19 256.80 338.47 202.25 392.82 147.77 Z" />
<path fill="#fbb803" opacity="1.00" d=" M 408.27 239.37 C 420.66 238.07 433.46 241.22 443.77 248.22 C 456.23 256.52 464.97 270.18 467.14 285.01 C 469.34 299.04 465.76 313.87 457.29 325.29 C 448.78 337.00 435.39 345.04 421.02 346.90 C 407.85 348.72 394.06 345.44 383.16 337.81 C 370.36 329.02 361.68 314.50 360.14 299.03 C 358.61 285.29 362.60 271.03 371.11 260.13 C 379.98 248.52 393.72 240.79 408.27 239.37 M 410.12 282.06 C 404.77 283.73 401.20 289.58 402.20 295.11 C 403.03 301.11 409.07 305.78 415.11 304.95 C 421.66 304.37 426.73 297.57 425.34 291.12 C 424.32 284.33 416.59 279.66 410.12 282.06 Z" />
</g>
</svg>