<svg width="53px" height="58px" viewBox="0 0 530 580" version="1.1" xmlns="http://www.w3.org/2000/svg">
<g id="#57338dff">
<path fill="#57338d" opacity="1.00" d=" M 133.55 0.00 L 143.38 0.00 C 167.38 1.40 189.88 12.44 207.98 27.87 C 232.07 48.31 250.05 74.87 265.00 102.45 C 280.26 74.31 298.68 47.19 323.52 26.62 C 341.30 11.85 363.23 1.40 386.53 0.00 L 396.35 0.00 C 414.40 1.25 432.90 6.27 446.97 18.12 C 460.93 29.49 469.26 47.08 469.87 65.01 C 470.96 89.69 459.98 113.53 444.03 131.88 C 472.69 131.87 501.34 131.88 530.00 131.88 L 530.00 296.69 C 523.19 296.69 516.38 296.68 509.57 296.70 C 509.55 391.13 509.57 485.57 509.56 580.00 L 20.44 580.00 C 20.43 485.57 20.45 391.13 20.43 296.70 C 13.62 296.68 6.81 296.69 0.00 296.69 L 0.00 131.88 C 28.66 131.88 57.31 131.87 85.97 131.88 C 69.99 113.51 59.01 89.61 60.13 64.89 C 60.77 47.00 69.10 29.45 83.04 18.11 C 97.09 6.29 115.54 1.27 133.55 0.00 M 113.28 48.28 C 107.50 51.46 103.33 57.34 102.41 63.90 C 100.87 74.45 104.75 84.96 110.12 93.88 C 121.90 113.03 142.11 125.89 163.58 131.56 C 166.01 132.09 168.51 131.84 170.97 131.88 C 191.57 131.88 212.18 131.86 232.79 131.89 C 224.10 114.36 214.03 97.43 201.85 82.08 C 192.76 70.66 182.38 60.03 169.99 52.18 C 161.03 46.49 150.72 42.54 140.03 42.23 C 130.85 42.17 121.35 43.70 113.28 48.28 M 360.03 52.16 C 345.18 61.59 333.25 74.90 322.89 88.97 C 313.02 102.43 304.67 116.95 297.18 131.85 C 319.13 131.93 341.08 131.83 363.03 131.90 C 364.17 131.91 365.30 131.80 366.42 131.56 C 380.64 127.78 394.14 120.98 405.20 111.21 C 415.61 101.96 424.14 89.92 427.14 76.14 C 428.88 68.20 428.12 58.98 422.37 52.77 C 415.86 45.91 406.12 43.54 397.04 42.50 C 384.02 40.97 370.93 45.18 360.03 52.16 M 42.01 174.12 C 42.02 200.92 41.94 227.72 42.05 254.53 C 190.67 254.49 339.30 254.46 487.93 254.54 C 488.09 227.74 487.96 200.93 487.99 174.12 C 339.33 174.12 190.67 174.13 42.01 174.12 M 62.45 296.69 C 62.42 377.06 62.45 457.43 62.43 537.80 C 197.48 537.82 332.52 537.82 467.57 537.80 C 467.55 457.43 467.58 377.06 467.55 296.69 C 332.52 296.65 197.49 296.65 62.45 296.69 Z" />
</g>
<g id="#fbb803ff">
<path fill="#fbb803" opacity="1.00" d=" M 194.13 296.90 C 208.12 296.87 222.12 296.86 236.12 296.90 C 236.07 323.18 236.24 349.46 236.03 375.74 C 245.81 371.58 255.33 366.82 265.00 362.43 C 274.62 366.91 284.25 371.38 293.86 375.87 C 293.89 349.55 293.86 323.22 293.88 296.90 C 307.88 296.86 321.87 296.87 335.87 296.90 C 335.88 345.26 335.88 393.62 335.88 441.98 C 312.24 431.00 288.63 419.98 265.00 408.99 C 241.37 419.98 217.76 431.00 194.12 441.98 C 194.12 393.62 194.12 345.26 194.13 296.90 Z" />
</g>
</svg>