<svg xmlns="http://www.w3.org/2000/svg" xmlns:xlink="http://www.w3.org/1999/xlink" width="356" height="357" viewBox="0 0 356 357"><defs><path id="i3zea" d="M965 926c87.81 0 159 71.19 159 159s-71.19 159-159 159-159-71.19-159-159 71.19-159 159-159zm-108 159c0 59.65 48.35 108 108 108s108-48.35 108-108-48.35-108-108-108-108 48.35-108 108z"/><path id="i3zef" d="M805 1246V924h320v322zm1-160c0 87.81 71.19 159 159 159s159-71.19 159-159-71.19-159-159-159-159 71.19-159 159zm159-108c59.65 0 108 48.35 108 108s-48.35 108-108 108-108-48.35-108-108 48.35-108 108-108z"/><mask id="i3zec" width="2" height="2" x="-1" y="-1"><path fill="#fff" d="M806 926h318v318H806z"/><use xlink:href="#i3zea"/></mask><filter id="i3zeb" width="374" height="377" x="778" y="916" filterUnits="userSpaceOnUse"><feOffset dy="3" in="SourceGraphic" result="FeOffset1023Out"/><feGaussianBlur in="FeOffset1023Out" result="FeGaussianBlur1024Out" stdDeviation="7.2 7.2"/></filter><mask id="i3zee" width="2" height="2" x="-1" y="-1"><path fill="#fff" d="M806 926h318v318H806z"/><use xlink:href="#i3zea"/></mask><filter id="i3zed" width="338" height="339" x="796" y="916" filterUnits="userSpaceOnUse"><feOffset dy="1" in="SourceGraphic" result="FeOffset1034Out"/><feGaussianBlur in="FeOffset1034Out" result="FeGaussianBlur1035Out" stdDeviation="0 0"/></filter><filter id="i3zeg" width="200%" height="200%" x="-50%" y="-50%"><feGaussianBlur in="SourceGraphic" result="FeGaussianBlur1040Out" stdDeviation="0.5 0.5"/></filter><mask id="i3zeh"><use fill="#fff" xlink:href="#i3zea"/></mask></defs><g><g transform="translate(-787 -909)"><g filter="url(#i3zeb)"><use fill="none" stroke-opacity=".53" stroke-width="0" mask="url(&quot;#i3zec&quot;)" xlink:href="#i3zea"/><use fill="#1d083c" fill-opacity=".53" xlink:href="#i3zea"/></g><g filter="url(#i3zed)"><use fill="none" stroke-width="0" mask="url(&quot;#i3zee&quot;)" xlink:href="#i3zea"/><use fill="#2f1458" xlink:href="#i3zea"/></g><use fill="#2e1357" xlink:href="#i3zea"/><use fill="#411d7c" stroke="#411d7c" stroke-width="0" filter="url(#i3zeg)" mask="url(&quot;#i3zeh&quot;)" xlink:href="#i3zef"/></g></g></svg>