<svg width="38px" height="43px" viewBox="0 0 380 430" version="1.1" xmlns="http://www.w3.org/2000/svg">
<g id="#fbb803ff">
<path fill="#fbb803" opacity="1.00" d=" M 165.41 17.52 C 173.40 13.11 181.27 8.48 189.24 4.04 C 250.18 38.61 311.19 73.06 372.09 107.71 C 372.00 179.35 372.10 250.99 372.04 322.63 C 326.35 348.98 280.68 375.36 235.00 401.73 C 235.00 346.29 235.01 290.84 235.00 235.39 C 219.70 245.53 204.43 255.69 189.14 265.83 C 174.03 255.78 158.94 245.70 143.83 235.66 C 143.81 264.65 143.83 293.64 143.82 322.63 C 128.63 313.88 113.50 305.02 98.28 296.32 C 98.17 233.36 98.27 170.39 98.23 107.43 C 83.00 116.20 67.79 125.00 52.59 133.80 C 52.59 187.94 52.58 242.08 52.59 296.22 C 98.14 321.82 143.67 347.45 189.23 373.02 C 197.30 369.04 205.34 365.02 213.41 361.04 C 213.41 378.75 213.41 396.47 213.41 414.18 C 205.34 418.85 197.28 423.52 189.19 428.15 C 128.28 392.96 67.33 357.82 6.41 322.62 C 6.46 251.03 6.32 179.43 6.48 107.84 C 52.30 81.92 98.03 55.82 143.82 29.85 C 143.82 80.48 143.82 131.11 143.82 181.74 C 158.96 192.28 174.08 202.83 189.21 213.38 C 204.48 202.64 219.89 192.07 235.07 181.20 C 234.92 156.68 235.03 132.16 235.01 107.64 C 250.20 116.34 265.38 125.06 280.57 133.76 C 280.61 196.72 280.57 259.67 280.59 322.63 C 295.81 313.84 311.02 305.02 326.24 296.22 C 326.24 242.08 326.23 187.94 326.24 133.81 C 280.57 108.34 234.89 82.89 189.22 57.44 C 181.28 61.83 173.35 66.23 165.42 70.62 C 165.40 52.92 165.42 35.22 165.41 17.52 Z" />
</g>
</svg>