<svg width="15px" height="11px" viewBox="0 0 150 110" version="1.1" xmlns="http://www.w3.org/2000/svg">
<g id="#5a2fa4ff">
<path fill="#5a2fa4" opacity="1.00" d=" M 86.17 13.21 C 88.72 11.07 91.27 8.93 93.84 6.82 C 107.46 20.41 121.07 34.02 134.66 47.64 C 135.14 47.52 136.10 47.29 136.59 47.18 C 139.06 49.10 141.37 51.22 143.81 53.18 C 143.38 53.64 142.52 54.55 142.09 55.00 C 142.52 55.46 143.38 56.37 143.81 56.82 C 141.37 58.79 139.06 60.90 136.59 62.82 C 136.11 62.71 135.14 62.48 134.66 62.37 C 121.07 75.99 107.46 89.59 93.84 103.18 C 91.26 101.07 88.72 98.93 86.17 96.79 C 98.42 84.52 110.70 72.28 122.94 60.01 C 81.96 59.99 40.98 60.00 0.00 60.00 L 0.00 50.00 C 40.98 50.00 81.96 50.01 122.94 49.99 C 110.70 37.72 98.42 25.48 86.17 13.21 Z" />
</g>
</svg>