<svg width="35px" height="31px" viewBox="0 0 350 310" version="1.1" xmlns="http://www.w3.org/2000/svg">
<g id="#ffffffff">
<path fill="#4ba3e2" opacity="1.00" d=" M 339.23 0.00 L 341.67 0.00 C 345.76 0.56 349.07 3.73 350.00 7.72 L 350.00 10.41 C 330.52 102.90 310.93 195.37 291.44 287.86 C 290.66 291.22 290.39 295.13 287.59 297.52 C 284.22 300.72 278.62 300.81 275.03 297.92 C 248.82 279.17 222.58 260.47 196.39 241.68 C 193.43 239.39 189.88 237.51 186.02 237.81 C 182.54 237.84 179.37 239.56 176.78 241.77 C 162.22 253.49 147.64 265.23 133.02 276.88 C 128.06 281.13 119.44 278.39 117.93 272.02 C 107.50 239.19 97.20 206.31 86.76 173.48 C 60.08 163.72 33.42 153.89 6.75 144.10 C 3.28 143.05 0.71 140.10 0.00 136.56 L 0.00 133.77 C 0.58 129.98 3.44 127.00 7.06 125.92 C 97.84 91.47 188.60 56.98 279.37 22.51 C 299.35 15.07 319.14 7.11 339.23 0.00 M 270.37 62.37 C 218.05 94.04 165.78 125.79 113.47 157.48 C 107.45 160.82 104.05 168.38 106.08 175.04 C 111.80 194.89 117.46 214.77 123.33 234.57 C 124.36 238.17 130.36 237.78 130.89 234.09 C 132.71 222.81 133.94 211.42 135.69 200.12 C 136.70 194.36 139.79 189.06 144.14 185.16 C 187.28 145.62 230.51 106.16 273.64 66.60 C 276.69 64.70 273.05 59.92 270.37 62.37 Z" />
</g>
</svg>